<svg width="50" height="48" viewBox="0 0 50 48" fill="none" xmlns="http://www.w3.org/2000/svg">
<g clip-path="url(#clip0)">
<path d="M44.8104 10.4028C42.5635 7.7431 39.2066 4.58376 35.9743 4.63626C34.9937 4.65219 34.0157 5.31674 32.7013 6.5514C30.7989 5.76885 26.6257 4.78813 24.5161 4.8224C22.4046 4.8567 18.2655 5.97319 16.3913 6.81635C15.0375 5.62503 14.0385 4.9926 13.0579 5.00853C9.82561 5.06104 6.57306 8.32775 4.41372 11.059C2.80477 13.0941 0.261847 16.9125 0.28756 18.4953C0.335855 21.4683 0.457127 22.8013 3.00696 25.9761C4.95329 28.3994 5.21341 31.9713 6.52378 33.8919C7.38115 35.1487 8.65112 35.6344 10.0996 35.2599C11.543 34.8866 12.4647 33.6918 12.8494 31.7029C14.497 33.8214 14.246 35.0865 14.3643 35.8142C14.5167 38.5913 19.5182 43.2661 25.1391 43.1748C30.7508 43.0837 35.6069 38.2537 35.6691 35.4682C35.7632 34.7406 35.4623 33.4827 37.0483 31.304C37.5074 33.3294 38.637 34.905 40.7918 34.87C44.8305 34.8044 44.0588 28.7843 46.7009 25.2664C49.1462 22.0105 49.2241 20.6742 49.1758 17.7012C49.1502 16.1183 46.4846 12.3845 44.8104 10.4028ZM24.9594 32.1116C24.164 32.1245 23.2031 30.9805 22.8024 30.2547C23.925 29.808 25.9176 29.7755 27.0548 30.1856C26.678 30.9241 25.7548 32.0987 24.9594 32.1116ZM25.0551 38.0085C26.0595 38.7163 27.3635 39.1321 28.6987 39.2718C26.309 40.5011 23.8856 40.5417 21.4545 39.3895C22.7844 39.2065 24.0743 38.7485 25.0551 38.0085ZM44.2278 23.5359C41.8725 26.6717 41.5763 31.1626 40.7148 31.9185C40.1687 31.8794 39.941 30.2743 39.8838 29.7481C39.5893 27.0327 40.0953 23.1382 40.0573 20.8002C39.9925 16.8102 36.8095 10.8562 36.674 10.6047C36.2848 9.88218 35.3622 9.60189 34.6136 9.97831C33.8648 10.3549 33.5734 11.246 33.9625 11.9684C34.7928 13.5099 36.9573 18.1104 37.0018 20.8499C37.0268 22.3888 36.7753 24.8557 36.7403 27.2204C35.9254 27.9212 32.5828 31.0371 32.6461 34.9377C32.6758 36.7662 27.3625 36.8579 26.3578 35.089C26.3155 35.0145 26.2575 34.9292 26.1957 34.8571C28.4795 34.1126 30.2947 31.2927 30.2706 29.8121C30.2063 25.8526 19.512 26.0263 19.5763 29.9858C19.6003 31.4659 21.4997 34.224 23.8129 34.8958C23.7542 34.9688 23.699 35.0556 23.6584 35.1328C22.7085 36.9389 17.3982 37.0111 17.3685 35.1859C17.3051 31.2853 13.863 28.2796 13.0258 27.6056C12.9181 25.329 12.582 22.7481 12.5576 21.247C12.5132 18.5142 14.5272 13.8412 15.3068 12.2715C15.6723 11.5368 15.352 10.6557 14.5913 10.3036C13.8308 9.95148 12.9178 10.2618 12.5524 10.9966C12.4251 11.2524 9.43724 17.3066 9.50205 21.2966C9.54005 23.6357 10.1721 27.5125 9.96596 30.2341C9.92601 30.7619 9.75057 32.3734 9.20594 32.4303C8.311 31.6952 7.88707 27.2348 5.42253 24.1663C3.41655 21.6687 3.38444 20.9795 3.34429 18.526C3.51047 17.8436 4.91609 15.2267 7.05177 12.5852C9.30346 9.8001 11.4991 8.08967 12.9686 7.96574C13.4235 8.17737 14.3724 9.01801 15.1099 9.70725C15.6975 10.2565 16.631 10.2607 17.2252 9.71549C17.9762 9.20283 22.5214 7.80576 24.564 7.77258C26.6066 7.7394 31.1948 8.9881 31.962 9.4761C32.5729 10.0011 33.5058 9.96781 34.0759 9.39916C35.3167 8.16164 35.8928 7.72467 36.1598 7.58901C37.6326 7.66533 39.8825 9.30363 42.2232 12.0139C44.4436 14.5846 45.9335 17.1544 46.1217 17.8311C46.1614 20.2846 46.1516 20.9745 44.2278 23.5359Z" fill="#8B6969"/>
<path d="M17.5347 21.9039C18.5894 21.8868 19.431 21.0474 19.4145 20.029C19.3979 19.0107 18.5295 18.199 17.4748 18.2162C16.4201 18.2333 15.5785 19.0727 15.5951 20.0911C15.6116 21.1094 16.48 21.921 17.5347 21.9039Z" fill="#8B6969"/>
<path d="M32.0485 21.6681C33.1032 21.6509 33.9448 20.8115 33.9283 19.7932C33.9117 18.7748 33.0433 17.9632 31.9886 17.9803C30.9339 17.9975 30.0923 18.8369 30.1089 19.8552C30.1254 20.8736 30.9938 21.6852 32.0485 21.6681Z" fill="#8B6969"/>
</g>
<defs>
<clipPath id="clip0">
<rect width="48.8948" height="47.2092" fill="white" transform="translate(0 0.794189) rotate(-0.930665)"/>
</clipPath>
</defs>
</svg>
