<svg width="93" height="85" viewBox="0 0 93 85" fill="none" xmlns="http://www.w3.org/2000/svg">
<ellipse cx="46.5" cy="42.5" rx="46.5" ry="42.5" fill="#8B6969"/>
<g clip-path="url(#clip0)">
<path d="M62.041 51.843C64.095 55.077 65.063 56.794 65.063 58.585C65.063 62.122 62.436 63.837 58.897 63.837C57.337 63.837 56.33 63.835 53.785 62.511C53.785 62.511 52.136 61.002 48.277 61.157C44.382 61.003 42.732 62.53 42.732 62.53C40.187 63.853 39.216 63.839 37.658 63.839C34.119 63.839 31.49 62.126 31.49 58.587C31.49 56.796 32.461 55.081 34.514 51.845C34.514 51.845 38.395 45.4 41.758 42.368C44.188 40.18 47.731 40.188 47.731 40.188H48.824V40.187C48.824 40.187 52.522 40.178 54.8 42.368C58.059 45.51 62.041 51.844 62.041 51.843ZM39.631 35.878C43.331 35.878 46.33 31.204 46.33 25.439C46.33 19.674 43.331 15 39.631 15C35.931 15 32.932 19.674 32.932 25.439C32.932 31.204 35.931 35.878 39.631 35.878ZM33.211 45.988C35.938 44.729 36.56 40.265 34.599 36.017C32.638 31.769 28.838 29.345 26.111 30.603C23.384 31.861 22.763 36.326 24.723 40.574C26.684 44.822 30.484 47.245 33.211 45.988ZM55.206 35.878C58.906 35.878 61.906 31.204 61.906 25.439C61.906 19.674 58.906 15 55.206 15C51.506 15 48.507 19.674 48.507 25.439C48.507 31.204 51.506 35.878 55.206 35.878ZM68.727 30.602C65.999 29.343 62.2 31.767 60.239 36.016C58.278 40.265 58.9 44.729 61.628 45.988C64.356 47.246 68.155 44.822 70.116 40.574C72.077 36.326 71.455 31.861 68.727 30.602Z" fill="#F1E7F7"/>
</g>
<defs>
<clipPath id="clip0">
<rect width="48.839" height="48.839" fill="white" transform="translate(23 15)"/>
</clipPath>
</defs>
</svg>
