<svg width="93" height="85" viewBox="0 0 93 85" fill="none" xmlns="http://www.w3.org/2000/svg">
<ellipse cx="46.5" cy="42.5" rx="46.5" ry="42.5" fill="#8B6969"/>
<path d="M46.9647 11.0189C46.3218 11.0248 45.716 11.2859 45.3012 11.7402L18 41.5522L20.4918 43.3249L46.9983 14.3753L74.548 43.344L76.9999 41.5318L48.6424 11.7134C48.2187 11.2659 47.6021 11.0171 46.9647 11.0189Z" fill="#FEF8F8"/>
<path d="M47.4605 42.5674C47.6248 42.5186 47.8332 42.281 47.8439 42.1302C48.0849 38.4947 44.6787 33.648 43.4521 32.0299C42.4646 32.3768 41.5037 32.9376 40.6167 33.7921C40.6167 33.7921 38.8451 34.8399 38.2166 39.931C41.5301 43.713 45.6473 43.0945 47.4605 42.5674Z" fill="#FEF8F8"/>
<path d="M60.6013 36.1144L55.173 34.9466C55.173 34.9466 55.0183 33.7923 53.479 33.318C52.357 32.9715 48.4912 31.0132 44.6876 31.7049C46.1256 33.6341 49.3246 38.3894 49.0717 42.193C49.034 42.791 48.4946 43.4089 47.8462 43.5978C47.2228 43.7806 46.104 44.0337 44.7443 44.0337C42.7742 44.0337 40.2999 43.4997 38.0707 41.4467C38.027 42.0991 38.002 42.8048 37.9976 43.5682C37.9726 47.5062 32.2971 51.24 32.2971 51.24L31.5411 52.6208C33.084 55.5651 35.5027 58.0816 38.5054 59.9079C38.6415 58.0271 39.1767 56.5538 39.7965 55.4465C40.9703 53.3435 42.6165 52.1764 43.4565 51.6825C43.6372 47.342 45.2357 46.0735 46.5692 45.7834C46.9788 45.694 47.4106 45.771 47.7503 45.9958C48.1369 46.2501 48.3856 46.6698 48.4108 47.1204C48.4793 48.2871 49.2617 49.1061 49.6327 49.4314C50.2343 49.4808 50.8086 49.5648 51.3493 49.6802L51.3989 49.271L51.8121 45.7347C51.8822 45.1379 52.4908 44.6348 53.1645 44.5497C55.7229 44.2212 61.423 42.8856 61.7935 37.4581C61.8361 36.8594 61.2625 36.2573 60.6013 36.1144ZM52.1441 37.3752C51.7611 37.3752 51.4501 37.1023 51.4501 36.7643C51.4501 36.4264 51.7611 36.1535 52.1441 36.1535C52.5279 36.1535 52.8374 36.4264 52.8374 36.7643C52.836 37.1017 52.5272 37.3752 52.1441 37.3752Z" fill="#FEF8F8"/>
<path d="M55.1746 53.5354C54.9693 51.9966 52.5049 50.7287 49.3204 50.5485C49.3204 50.5485 47.6295 49.4029 47.516 47.4253C47.4974 47.1259 47.2435 46.8284 46.9137 46.9001C46.0628 47.0846 44.6179 48.0474 44.5459 52.4448C44.5459 52.4448 39.9177 54.5027 39.5833 60.4357C42.55 62.0066 46.0072 62.9281 49.6973 62.9817L49.6559 62.1318C49.6406 61.8324 49.8871 61.5041 50.205 61.3992L54.1472 60.0962C54.1472 60.0962 55.996 60.1876 56.765 58.9642C57.1544 58.3476 57.5157 57.9167 57.7819 57.6391C57.9997 57.4107 57.9962 57.0842 57.7525 56.8755C56.9471 56.1903 55.3279 54.6853 55.1746 53.5354ZM52.836 55.0248C52.4537 55.0248 52.1434 54.7526 52.1434 54.4145C52.1434 54.0756 52.4537 53.8028 52.836 53.8028C53.2197 53.8028 53.53 54.0756 53.53 54.4145C53.5302 54.7525 53.2199 55.0248 52.836 55.0248Z" fill="#FEF8F8"/>
</svg>
