<svg width="93" height="85" viewBox="0 0 93 85" fill="none" xmlns="http://www.w3.org/2000/svg">
<ellipse cx="46.5" cy="42.5" rx="46.5" ry="42.5" fill="#8B6969"/>
<path d="M41.2876 42.803H43.2212V44.2092H41.2876V42.803Z" fill="#FFF9F9"/>
<path d="M55.5248 29.5087C55.5248 32.9272 51.7005 35.7084 46.9999 35.7084C43.85 35.7084 41.2876 37.5721 41.2876 39.8629V41.3967H43.2212V39.8629C43.2212 38.3475 44.9163 37.1147 46.9999 37.1147C52.7667 37.1147 57.4584 33.7027 57.4584 29.5087C57.4584 25.3148 52.7667 21.9028 47.0001 21.9028C41.5593 21.9028 37.0756 24.94 36.5861 28.8056H29.0099C29.2297 25.8098 30.8503 22.9644 33.6289 20.7281L32.1943 19.7853C28.8773 22.455 27.0505 25.9082 27.0505 29.5087V30.2119H38.4755V29.5087C38.4755 26.0902 42.2996 23.3091 47.0002 23.3091C51.7008 23.3091 55.5248 26.0902 55.5248 29.5087Z" fill="#FFF9F9"/>
<path d="M47 15C42.0494 15 37.3012 16.3285 33.6302 18.7408L34.9267 19.7842C38.2415 17.6059 42.5292 16.4062 47 16.4062C56.9341 16.4062 65.0161 22.284 65.0161 29.5087C65.0161 35.4912 59.46 40.7094 51.5048 42.1984L50.7789 42.3342V47.1493C50.7789 48.6647 49.0838 49.8975 47.0002 49.8975C44.9164 49.8975 43.2213 48.6647 43.2213 47.1493V45.6155H41.2877V47.1493C41.2877 49.4402 43.8503 51.3037 47.0002 51.3037C50.15 51.3037 52.7125 49.4401 52.7125 47.1493V43.4137C61.1325 41.5904 66.9497 35.9494 66.9497 29.5087C66.9497 21.5086 58.0002 15 47 15Z" fill="#FFF9F9"/>
<path d="M47.0001 54.691C43.8501 54.691 41.2877 56.5547 41.2877 58.8455C41.2877 61.1363 43.8501 63 47.0001 63C50.15 63 52.7124 61.1364 52.7124 58.8456C52.7124 56.5548 50.15 54.691 47.0001 54.691ZM47.0001 61.5938C44.9164 61.5938 43.2213 60.3609 43.2213 58.8456C43.2213 57.3302 44.9164 56.0974 47.0001 56.0974C49.0837 56.0974 50.7788 57.3302 50.7788 58.8456C50.7788 60.3609 49.0837 61.5938 47.0001 61.5938Z" fill="#FFF9F9"/>
<path d="M49.9005 18.5156H51.8341V19.9219H49.9005V18.5156Z" fill="#FFF9F9"/>
<path d="M53.7677 19.9219H55.7013V21.3281H53.7677V19.9219Z" fill="#FFF9F9"/>
</svg>
