<svg width="47" height="43" viewBox="0 0 47 43" fill="none" xmlns="http://www.w3.org/2000/svg">
<g clip-path="url(#clip0)">
<path d="M18.6831 22.2164C19.689 22.2164 20.5044 21.4704 20.5044 20.5501C20.5044 19.6298 19.689 18.8838 18.6831 18.8838C17.6772 18.8838 16.8618 19.6298 16.8618 20.5501C16.8618 21.4704 17.6772 22.2164 18.6831 22.2164Z" fill="#8B6969"/>
<path d="M28.3169 22.2164C29.3228 22.2164 30.1383 21.4704 30.1383 20.5501C30.1383 19.6298 29.3228 18.8838 28.3169 18.8838C27.311 18.8838 26.4956 19.6298 26.4956 20.5501C26.4956 21.4704 27.311 22.2164 28.3169 22.2164Z" fill="#8B6969"/>
<path d="M46.9601 19.3404C46.7732 18.6182 45.9817 18.1713 45.1924 18.3425L41.226 19.202C41.1744 18.4864 41.063 17.7806 40.8931 17.0886V5.30545C40.8931 1.39049 36.8552 -1.1904 33.418 0.635562L24.6762 5.27925C23.8717 5.23549 23.1291 5.23541 22.3238 5.27925L13.5821 0.635562C10.1386 -1.19359 6.10687 1.39653 6.10687 5.30545V17.0886C5.93696 17.7806 5.82552 18.4864 5.77393 19.202L1.80753 18.3425C1.01818 18.1715 0.226812 18.6182 0.0398239 19.3404C-0.147164 20.0626 0.341189 20.7866 1.13054 20.9577L5.87702 21.9862C6.09622 23.4648 6.57586 24.8922 7.29636 26.2311L3.739 26.8913C2.94405 27.0389 2.43027 27.748 2.59156 28.4753C2.73283 29.1125 3.3452 29.5522 4.02944 29.5522C4.24122 29.5522 3.9147 29.6009 8.95621 28.6653C9.6444 29.483 10.4324 30.2454 11.3172 30.9447C8.40883 34.8607 8.78033 38.2292 8.78033 41.6177C8.78033 42.3598 9.43795 42.9614 10.2491 42.9614H36.7509C37.562 42.9614 38.2196 42.3598 38.2196 41.6177C38.2196 38.1798 38.5881 34.8565 35.6828 30.9447C36.5675 30.2455 37.3556 29.483 38.0438 28.6653L42.677 29.5251C43.4733 29.6728 44.2474 29.2014 44.4083 28.4753C44.5696 27.748 44.0558 27.0389 43.2609 26.8913L39.7035 26.2311C40.424 24.8921 40.9037 23.4647 41.1229 21.9862L45.8693 20.9577C46.6588 20.7866 47.1471 20.0625 46.9601 19.3404ZM34.893 2.95963C36.4107 2.15339 37.9556 3.57917 37.9556 5.30545V11.4712C35.8085 8.96578 32.7487 7.01879 29.1481 6.01133L34.893 2.95963ZM9.04433 5.30545C9.04433 3.6902 10.2183 2.72893 11.2253 2.72893C11.8293 2.72893 11.5752 2.67719 17.8518 6.01141C14.255 7.01778 11.1938 8.96309 9.04433 11.4713V5.30545ZM35.2822 40.274H11.7178C11.7178 38.1706 11.4907 35.5455 13.6921 32.5265C19.6043 35.8173 27.3917 35.8194 33.3078 32.5265C35.4552 35.4714 35.2822 37.9742 35.2822 40.274ZM36.6929 25.6724L33.4651 25.0734C32.67 24.926 31.895 25.3959 31.7337 26.1232C31.5724 26.8505 32.0862 27.5597 32.8812 27.7072L34.743 28.0527C28.8126 33.7255 18.1847 33.7227 12.2572 28.0527L14.119 27.7072C14.9139 27.5597 15.4277 26.8505 15.2664 26.1232C15.1051 25.3959 14.3301 24.9259 13.5351 25.0734L10.3073 25.6724C9.72013 24.7333 9.27786 23.7236 9.00293 22.6634L12.5339 23.4285C13.3275 23.6004 14.1156 23.1489 14.3016 22.4306C14.4885 21.7085 14.0002 20.9844 13.2108 20.8134L8.68165 19.8319C8.86836 13.2451 15.4438 7.93379 23.5 7.93379C31.5563 7.93379 38.1317 13.245 38.3185 19.832L33.7893 20.8135C33 20.9845 32.5117 21.7085 32.6986 22.4307C32.8851 23.151 33.6749 23.6 34.4663 23.4286L37.9972 22.6635C37.7223 23.7236 37.28 24.7333 36.6929 25.6724Z" fill="#8B6969"/>
<path d="M26.7032 28.2122L24.9687 27.7214V26.4491L25.8007 25.348C26.3701 24.5945 25.7806 23.566 24.7794 23.566H22.2204C21.2192 23.566 20.6298 24.5945 21.1991 25.348L22.0312 26.4491V27.7214L20.2967 28.2122C19.5217 28.4313 19.0878 29.1838 19.3274 29.8928C19.567 30.6018 20.3896 30.999 21.1645 30.7796L23.4998 30.1189C26.0727 30.8468 25.9741 30.8399 26.2694 30.8399C26.8965 30.8398 27.4772 30.4695 27.6722 29.8927C27.9121 29.1838 27.4781 28.4313 26.7032 28.2122Z" fill="#8B6969"/>
</g>
<defs>
<clipPath id="clip0">
<rect width="47" height="43" fill="white"/>
</clipPath>
</defs>
</svg>
